<svg width="64" height="64" viewBox="0 0 64 64" fill="none" xmlns="http://www.w3.org/2000/svg">
<rect width="64" height="64" fill="white"/>
<line x1="49.6906" y1="54.2636" x2="49.7703" y2="23.827" stroke="#9C7710"/>
<line x1="10.695" y1="55.0206" x2="10.6907" y2="16.0206" stroke="#9C7710"/>
<path d="M10.8996 16.5185L36.9157 16.5129" stroke="#9C7710"/>
<path d="M11.1906 54.5108H50.1906" stroke="#9C7710"/>
<path fill-rule="evenodd" clip-rule="evenodd" d="M45.9478 3.64964C44.8829 3.88104 43.4759 4.49253 42.9291 4.96153C42.554 5.28343 42.6334 5.27387 43.734 4.86506C45.1987 4.32087 47.051 4.05256 48.0093 4.24571C49.9126 4.62925 51.0072 5.99045 52.6242 9.98449C53.3362 11.7432 53.7723 12.5473 54.2795 13.037C55.0192 13.751 55.8032 14.0292 55.1046 13.3296C54.5384 12.7625 53.9976 11.6907 53.2855 9.72314C52.0485 6.30674 50.9099 4.70242 49.1796 3.93832C48.0824 3.45383 47.2082 3.37581 45.9478 3.64964ZM39.5473 6.22151C37.6694 6.69857 36.7029 7.668 36.6349 9.1422C36.5731 10.4828 36.8733 11.3141 37.7487 12.2266C38.8188 13.342 39.4131 13.6053 38.6759 12.6373C37.9618 11.7001 37.3889 10.1455 37.4298 9.25716C37.4875 8.00546 38.7201 6.8071 40.3124 6.45482C40.792 6.34872 40.9505 6.04432 40.529 6.03882C40.3916 6.03701 39.9497 6.11918 39.5473 6.22151ZM46.2869 11.4845C45.9654 11.979 45.5742 12.7374 45.4174 13.1697C45.1701 13.8519 45.0791 13.9387 44.7298 13.8254C44.5085 13.7537 44.0149 13.6373 43.633 13.5666C43.0155 13.4524 42.933 13.3732 42.8862 12.85L42.8339 12.2616L42.565 12.9222C42.3478 13.4561 42.1839 13.5958 41.7108 13.6506C41.2527 13.7036 41.3964 13.7572 42.3718 13.8975C45.0179 14.2777 47.2988 15.5039 49.6457 17.8076C51.2485 19.3809 52.1162 20.0571 51.5098 19.26C51.2117 18.8683 51.2232 18.853 52.0103 18.595C53.1005 18.2376 53.0369 18.1158 51.9024 18.3886C51.3956 18.5105 50.958 18.5818 50.93 18.547C50.902 18.5124 50.4837 18.0043 50.0006 17.418C49.5175 16.8317 49.1887 16.2953 49.2699 16.226C49.3513 16.1567 49.3216 16.1408 49.2037 16.1909C49.086 16.2408 48.6169 16.0099 48.1613 15.6776C47.7056 15.3453 46.9393 14.8581 46.4581 14.5948C45.6432 14.1489 45.5945 14.0808 45.7451 13.5963C45.8341 13.3104 46.0362 12.8147 46.1944 12.4946L46.4818 11.9128L46.4908 12.4172L46.4996 12.9216L46.7181 12.3681C46.8382 12.0637 46.9218 11.538 46.9038 11.1999L46.8713 10.5853L46.2869 11.4845ZM57.7857 14.68C58.8305 15.2648 59.3323 15.7463 59.8116 16.624C60.4443 17.7829 60.5142 18.6155 60.0632 19.6198C59.5658 20.7268 58.8711 21.3387 57.768 21.6412C56.6398 21.9504 55.8707 21.8061 54.1941 20.9707C53.4953 20.6224 52.9221 20.3718 52.9202 20.4133C52.9183 20.4551 53.1547 20.699 53.4454 20.9555C54.1784 21.6021 55.7956 22.3024 56.6327 22.3355C58.1068 22.394 59.7509 21.4767 60.4626 20.1991C61.1084 19.0394 60.85 17.1233 59.8784 15.8648C59.4504 15.3106 57.8953 14.33 57.4135 14.3105C57.2427 14.3036 57.4103 14.4698 57.7857 14.68ZM38.2883 14.5964C37.9952 15.0967 37.5068 15.549 37.2625 15.8691L36.8516 16.2105L37.5068 15.9224C37.8223 15.7049 38.2513 15.3302 38.594 14.8162C39.2861 13.7782 39.3131 13.7079 39.0232 13.6956C38.912 13.6908 38.5814 14.0963 38.2883 14.5964ZM36.8516 16.697C36.899 16.7678 37.3943 16.9715 37.8622 17.2988C41.4128 18.5884 47.5978 22.2816 49.5374 24.1268C49.9007 24.4724 50.2926 24.7589 50.4083 24.7633C50.6274 24.7716 52.8612 21.6937 52.8765 21.3624C52.8813 21.2584 52.7598 21.1681 52.6064 21.1616C52.3165 21.1492 51.3254 22.2438 50.6655 23.3051C50.2224 24.0177 50.1451 24.0352 49.6565 23.5351C49.0621 22.9269 46.6727 21.1813 45.4169 20.4382C43.9016 19.5413 40.4003 17.8864 39.189 17.4943C37.8762 17.0695 36.7485 16.543 36.8516 16.697Z" fill="black"/>
<path d="M32.016 22.2604C29.264 22.2604 26.976 23.3964 25.152 25.6684C23.328 27.9404 22.416 30.8844 22.416 34.5004C22.416 38.7244 23.376 42.0364 25.296 44.4364C27.216 46.8364 29.52 48.0364 32.208 48.0364C33.808 48.0364 35.392 47.4924 36.96 46.4044C38.528 45.2844 39.536 44.1004 39.984 42.8524L41.136 43.4284C40.4 45.1884 39.232 46.6764 37.632 47.8924C36.064 49.0764 33.936 49.6684 31.248 49.6684C26.992 49.6684 23.616 48.2924 21.12 45.5404C18.656 42.7564 17.424 39.4284 17.424 35.5564C17.424 31.0764 18.848 27.4764 21.696 24.7564C24.576 22.0044 28 20.6284 31.968 20.6284C32.896 20.6284 33.968 20.8684 35.184 21.3484C36.4 21.8284 37.104 22.0684 37.296 22.0684C37.68 22.0684 37.872 21.7484 37.872 21.1084H38.976L39.456 27.2044H38.4C38.176 25.7644 37.536 24.5804 36.48 23.6524C35.456 22.7244 33.968 22.2604 32.016 22.2604Z" fill="black"/>
</svg>
