<svg width="838" height="531" viewBox="0 0 838 531" fill="none" xmlns="http://www.w3.org/2000/svg">
<path d="M623.281 283.575V280.425C628.681 280.425 631.831 279.425 632.731 277.425V201.975C631.831 199.975 628.681 198.975 623.281 198.975V195.825H683.731V210.375H680.581C680.581 204.975 679.581 201.825 677.581 200.925H646.531V235.425H667.531C669.531 234.525 670.531 231.375 670.531 225.975H673.681V249.975H670.531C670.531 244.575 669.531 241.425 667.531 240.525H646.531V277.425C647.431 279.425 650.581 280.425 655.981 280.425V283.575H623.281Z" fill="black"/>
<path d="M422.936 247.425C423.036 255.825 425.436 263.275 430.136 269.775C434.936 276.175 440.286 279.375 446.186 279.375C454.886 279.375 461.886 276.075 467.186 269.475L470.786 271.275C467.886 276.075 464.086 279.575 459.386 281.775C454.786 283.975 448.686 285.075 441.086 285.075C437.286 285.075 433.636 284.525 430.136 283.425C426.636 282.225 423.186 280.325 419.786 277.725C416.386 275.025 413.686 271.075 411.686 265.875C409.686 260.675 408.686 254.475 408.686 247.275C408.686 238.475 411.386 231.075 416.786 225.075C422.286 219.075 429.886 216.075 439.586 216.075C450.186 216.075 458.086 219.075 463.286 225.075C468.486 230.975 471.086 238.425 471.086 247.425H422.936ZM423.086 242.775H456.386C455.786 235.575 454.236 230.075 451.736 226.275C449.336 222.475 445.086 220.575 438.986 220.575C435.486 220.575 432.086 222.625 428.786 226.725C425.586 230.825 423.686 236.175 423.086 242.775Z" fill="black"/>
<path d="M314.067 283.575V280.425C319.467 280.425 322.617 279.425 323.517 277.425V201.975C322.617 199.975 319.467 198.975 314.067 198.975V195.825H346.767V198.975C341.367 198.975 338.217 199.975 337.317 201.975V235.425H375.717V201.975C374.817 199.975 371.667 198.975 366.267 198.975V195.825H398.967V198.975C393.567 198.975 390.417 199.975 389.517 201.975V277.425C390.417 279.425 393.567 280.425 398.967 280.425V283.575H366.267V280.425C371.667 280.425 374.817 279.425 375.717 277.425V240.525H337.317V277.425C338.217 279.425 341.367 280.425 346.767 280.425V283.575H314.067Z" fill="black"/>
<path d="M131.55 199.425C122.95 199.425 115.8 202.975 110.1 210.075C104.4 217.175 101.55 226.375 101.55 237.675C101.55 250.875 104.55 261.225 110.55 268.725C116.55 276.225 123.75 279.975 132.15 279.975C137.15 279.975 142.1 278.275 147 274.875C151.9 271.375 155.05 267.675 156.45 263.775L160.05 265.575C157.75 271.075 154.1 275.725 149.1 279.525C144.2 283.225 137.55 285.075 129.15 285.075C115.85 285.075 105.3 280.775 97.5 272.175C89.8 263.475 85.95 253.075 85.95 240.975C85.95 226.975 90.4 215.725 99.3 207.225C108.3 198.625 119 194.325 131.4 194.325C134.3 194.325 137.65 195.075 141.45 196.575C145.25 198.075 147.45 198.825 148.05 198.825C149.25 198.825 149.85 197.825 149.85 195.825H153.3L154.8 214.875H151.5C150.8 210.375 148.8 206.675 145.5 203.775C142.3 200.875 137.65 199.425 131.55 199.425Z" fill="black"/>
<path d="M611.957 188.607C613.343 188.607 614.41 188.361 615.157 187.871C615.285 186.975 615.349 186.025 615.349 185.023C615.349 182.804 615.018 181.172 614.357 180.127C613.717 179.081 612.895 178.559 611.893 178.559C610.975 178.559 610.229 179.081 609.653 180.127C609.098 181.151 608.821 182.484 608.821 184.127C608.821 184.852 608.895 185.535 609.045 186.175C609.215 186.793 609.546 187.359 610.037 187.871C610.549 188.361 611.189 188.607 611.957 188.607ZM614.997 188.927C614.122 189.439 613.13 189.695 612.021 189.695C609.717 189.695 608.127 189.193 607.253 188.191C606.378 187.188 605.941 185.748 605.941 183.871C605.941 181.908 606.463 180.361 607.509 179.231C608.554 178.1 610.015 177.535 611.893 177.535C613.919 177.535 615.477 178.239 616.565 179.647C617.674 181.033 618.229 182.825 618.229 185.023C618.229 186.815 617.919 188.489 617.301 190.047C616.682 191.583 615.893 192.841 614.933 193.823C613.994 194.783 613.023 195.551 612.021 196.127C611.018 196.703 610.079 197.044 609.205 197.151L608.821 196.575C610.399 196.169 611.722 195.316 612.789 194.015C613.855 192.713 614.591 191.017 614.997 188.927Z" fill="black"/>
<path d="M293.36 196.575C293.36 196.34 293.669 195.892 294.288 195.231C294.928 194.548 295.696 193.759 296.592 192.863C297.488 191.967 298.373 191.007 299.248 189.983C300.144 188.959 300.901 187.849 301.52 186.655C302.16 185.46 302.48 184.351 302.48 183.327C302.48 182.345 302.203 181.46 301.648 180.671C301.115 179.86 300.336 179.455 299.312 179.455C298.437 179.455 297.669 179.561 297.008 179.775C296.347 179.988 295.845 180.244 295.504 180.543C295.184 180.841 294.917 181.14 294.704 181.439C294.491 181.737 294.32 181.993 294.192 182.207C294.085 182.42 294 182.527 293.936 182.527C293.765 182.527 293.68 182.42 293.68 182.207C293.68 181.972 293.787 181.62 294 181.151C294.213 180.681 294.533 180.169 294.96 179.615C295.387 179.039 296.016 178.548 296.848 178.143C297.68 177.737 298.619 177.535 299.664 177.535C301.648 177.535 303.131 178.057 304.112 179.103C305.115 180.127 305.616 181.396 305.616 182.911C305.616 183.785 305.179 184.873 304.304 186.175C303.429 187.455 302.459 188.628 301.392 189.695C300.347 190.761 299.387 191.753 298.512 192.671C297.637 193.588 297.2 194.143 297.2 194.335H303.952C304.827 193.951 305.456 193.279 305.84 192.319H306.48L305.264 196.575H293.36Z" fill="black"/>
<path d="M71.8915 185.823C70.5048 185.823 69.4382 186.068 68.6915 186.559C68.5635 187.455 68.4995 188.404 68.4995 189.407C68.4995 191.625 68.8195 193.257 69.4595 194.303C70.1208 195.348 70.9528 195.871 71.9555 195.871C72.8728 195.871 73.6088 195.359 74.1635 194.335C74.7395 193.289 75.0275 191.945 75.0275 190.303C75.0275 189.577 74.9422 188.905 74.7715 188.287C74.6222 187.647 74.2915 187.081 73.7795 186.591C73.2888 186.079 72.6595 185.823 71.8915 185.823ZM68.8515 185.503C69.7262 184.991 70.7182 184.735 71.8275 184.735C74.1315 184.735 75.7208 185.236 76.5955 186.239C77.4702 187.241 77.9075 188.681 77.9075 190.559C77.9075 192.521 77.3848 194.068 76.3395 195.199C75.2942 196.329 73.8328 196.895 71.9555 196.895C69.9288 196.895 68.3608 196.201 67.2515 194.815C66.1635 193.428 65.6195 191.625 65.6195 189.407C65.6195 187.615 65.9288 185.951 66.5475 184.415C67.1662 182.857 67.9448 181.599 68.8835 180.639C69.8435 179.657 70.8248 178.879 71.8275 178.303C72.8302 177.727 73.7688 177.385 74.6435 177.279L75.0275 177.855C73.4488 178.26 72.1262 179.113 71.0595 180.415C69.9928 181.716 69.2568 183.412 68.8515 185.503Z" fill="black"/>
<rect x="276.109" y="131.7" width="216" height="216" stroke="#9C7710" stroke-width="4"/>
<rect x="15" y="131.7" width="216" height="216" stroke="#9C7710" stroke-width="4"/>
<line x1="759.945" y1="351.169" x2="759.945" y2="192.917" stroke="#9C7710" stroke-width="4"/>
<line x1="536.583" y1="349.7" x2="536.583" y2="129.699" stroke="#9C7710" stroke-width="4"/>
<line x1="534.601" y1="349.419" x2="761.942" y2="349.169" stroke="#9C7710" stroke-width="4"/>
<path d="M538.583 131.696H662.814" stroke="#9C7710" stroke-width="4"/>
<path d="M738.904 354.728C748.708 352.758 754.556 356.479 756.447 365.891C757.905 373.146 757.735 380.932 755.939 389.248C754.102 397.369 750.971 405.138 746.546 412.556C742.081 419.777 736.909 426.018 731.03 431.279C725.112 436.344 718.721 439.566 711.859 440.945C706.564 442.009 701.897 441.621 697.855 439.781C693.578 437.784 690.829 433.747 689.607 427.668C688.465 421.982 688.871 415.372 690.825 407.84C692.74 400.111 695.91 392.538 700.336 385.121C704.958 377.664 710.482 371.148 716.91 365.573C723.534 359.958 730.865 356.343 738.904 354.728ZM742.967 358.195C739.634 358.865 736.008 361.124 732.089 364.971C728.17 368.818 724.33 373.568 720.57 379.219C716.809 384.871 713.422 390.855 710.407 397.173C707.55 403.255 705.358 409.101 703.834 414.712C702.505 420.283 702.195 424.833 702.904 428.362C703.692 432.284 705.322 434.812 707.795 435.948C710.227 436.887 712.816 437.081 715.561 436.529C720.071 435.623 724.795 432.736 729.733 427.868C734.631 422.803 739.136 416.798 743.249 409.852C747.361 402.906 750.434 395.863 752.467 388.722C754.657 381.346 755.2 374.913 754.097 369.423C753.073 364.325 751.501 361.071 749.381 359.66C747.262 358.25 745.124 357.762 742.967 358.195ZM754.348 387.426C755.329 387.229 755.8 387.542 755.761 388.366C755.879 388.954 755.448 389.347 754.468 389.544C753.684 389.702 752.724 391.016 751.589 393.488C750.61 395.725 749.749 398.04 749.006 400.433C748.263 402.827 747.911 404.121 747.95 404.317C748.857 408.827 750.976 410.747 754.31 410.077C757.447 409.447 760.681 407.267 764.012 403.538C767.538 399.77 770.79 395.648 773.767 391.174C776.901 386.465 779.349 382.403 781.111 378.989L783.877 380.575C781.919 384.028 779.393 388.208 776.299 393.113C773.165 397.823 769.757 402.18 766.073 406.184C762.35 409.992 758.626 412.27 754.901 413.019C751.763 413.649 749.469 413.396 748.016 412.26C746.564 411.124 745.483 408.791 744.774 405.262C743.829 400.556 744.649 396.515 747.234 393.139C750.016 389.724 752.388 387.82 754.348 387.426Z" fill="black"/>
<path d="M618.085 416.947C617.458 417.889 616.89 418.106 616.379 417.596C615.83 416.891 615.574 416.126 615.613 415.302C618.276 411.299 620.724 406.727 622.955 401.587C625.382 396.408 627.28 391.64 628.649 387.285C630.214 382.891 631.055 379.968 631.171 378.517C631.563 378.438 632.092 378.025 632.758 377.28C633.621 376.494 634.464 376.121 635.287 376.159C635.367 377.571 635.329 378.905 635.173 380.16C635.213 381.376 636.116 382.317 637.882 382.982C639.648 383.647 643.08 383.978 648.179 383.973C653.278 383.968 660.946 383.55 671.182 382.717C672.202 382.716 672.967 382.97 673.478 383.48C674.145 383.754 673.988 384.499 673.009 385.716C669.874 389.406 666.505 393.959 662.902 399.375C659.298 404.791 655.851 410.481 652.562 416.446C649.429 422.175 646.963 427.669 645.163 432.926C643.56 438.144 643.073 442.322 643.704 445.459C644.413 448.989 646.336 450.438 649.473 449.808C653.395 449.02 657.492 446.565 661.763 442.443C666.231 438.281 670.561 433.433 674.753 427.899C678.905 422.169 682.666 416.517 686.034 410.944C689.559 405.136 692.477 400.368 694.788 396.64L697.495 397.932C695.302 401.228 692.54 405.761 689.212 411.53C685.883 417.299 681.985 423.284 677.52 429.485C673.21 435.451 668.371 440.809 663.002 445.56C657.593 450.115 651.653 453.042 645.183 454.342C641.457 455.091 637.946 454.878 634.651 453.704C631.394 452.727 629.333 450.081 628.466 445.767C627.638 441.65 628.536 436.981 631.16 431.762C633.783 426.543 637.289 421.147 641.677 415.573C646.025 409.803 650.629 404.288 655.488 399.028C660.504 393.532 664.912 388.567 668.713 384.131L671.303 386.365C669.185 385.974 665.616 385.977 660.595 386.374C655.536 386.575 650.241 386.619 644.71 386.506C639.14 386.197 634.178 385.358 629.823 383.989C625.664 382.581 623.21 380.014 622.461 376.289C622.067 374.328 622.379 371.817 623.396 368.757C624.57 365.461 626.627 363.518 629.568 362.927C632.314 362.375 634.295 362.589 635.511 363.569C636.689 364.352 637.455 365.626 637.809 367.391C638.046 368.567 637.558 371.215 636.346 375.335C635.094 379.258 633.49 383.967 631.534 389.46C629.538 394.756 627.307 399.897 624.84 404.88C622.57 409.824 620.318 413.847 618.085 416.947Z" fill="black"/>
<path d="M477 488.135C470.137 489.514 464.842 489.558 461.115 488.267C457.348 486.78 454.719 484.86 453.226 482.508C451.733 480.156 450.849 478.294 450.573 476.921C450.061 474.372 450.51 472.038 451.92 469.919C453.331 467.799 455.604 466.425 458.742 465.794C460.31 465.479 461.879 465.674 463.449 466.378C464.783 466.926 465.627 468.083 465.982 469.847C466.376 471.808 465.985 473.417 464.809 474.673C463.594 475.733 462.105 476.44 460.34 476.795C458.967 477.071 457.771 477.209 456.751 477.21C455.692 477.015 455.163 476.917 455.163 476.917C455.675 479.466 457.481 481.857 460.582 484.09C463.643 486.127 468.213 486.535 474.291 485.313C483.311 483.501 491.034 479.297 497.461 472.702C503.848 465.911 509.548 457.728 514.56 448.153C519.572 438.578 524.368 428.434 528.947 417.722C533.527 407.01 538.479 396.631 543.805 386.585C550.892 373.125 558.333 360.41 566.128 348.44C573.883 336.274 582.13 325.539 590.869 316.235C599.568 306.736 608.916 299.451 618.913 294.383C620.403 293.675 621.345 293.792 621.738 294.733C622.131 295.674 621.582 296.498 620.092 297.206C612.134 301.253 604.804 307.417 598.105 315.699C591.405 323.982 585.099 333.715 579.186 344.898C573.43 355.847 567.714 367.501 562.038 379.862C556.518 391.987 550.782 404.053 544.831 416.061C539.076 428.029 532.83 439.076 526.093 449.201C519.355 459.327 511.989 467.845 503.994 474.755C495.998 481.666 487 486.126 477 488.135ZM568.177 402.802C556.608 405.126 547.273 405.37 540.172 403.533C533.071 401.696 528.989 398.13 527.925 392.836C527.373 390.091 527.822 387.757 529.272 385.833C530.682 383.714 532.406 382.144 534.445 381.122C536.64 379.865 538.424 379.098 539.797 378.823C540.974 378.586 541.641 378.86 541.798 379.645C541.916 380.233 541.505 380.723 540.564 381.116C538.094 382.021 535.997 383.768 534.273 386.358C532.706 388.713 532.1 390.773 532.455 392.538C532.967 395.087 536.009 397.535 541.581 399.884C547.349 402.193 555.527 402.284 566.115 400.156C571.409 399.092 577.252 396.695 583.642 392.963C589.992 389.035 595.812 383.989 601.102 377.826C606.548 371.428 610.601 364.188 613.261 356.105C615.882 347.827 616.207 338.786 614.237 328.982C612.031 318.001 605.573 311.241 594.863 308.701C584.309 305.926 570.601 306.232 553.738 309.62C539.816 312.418 526.994 317.136 515.272 323.775C503.551 330.414 493.438 337.954 484.934 346.395C476.626 354.796 470.378 363.293 466.188 371.887C462.195 380.441 460.868 388.052 462.208 394.719C463.548 401.385 466.082 405.874 469.81 408.185C473.734 410.456 477.951 411.139 482.461 410.233C487.951 409.13 493.107 406.36 497.927 401.923C502.904 397.251 507.312 391.776 511.15 385.497C514.949 379.021 518.219 372.449 520.958 365.778C523.658 358.912 525.673 352.693 527.001 347.122C528.33 341.551 528.817 337.373 528.461 334.589C528.263 332.589 528.458 331.53 529.047 331.411C529.831 331.254 530.459 331.842 530.931 333.175C532.741 339.135 533.061 346.313 531.892 354.707C530.879 362.867 528.357 371.125 524.324 379.484C520.448 387.606 515.061 394.809 508.164 401.09C501.266 407.372 493.013 411.479 483.405 413.409C477.327 414.63 472.05 413.753 467.576 410.776C463.063 407.603 460.077 402.389 458.619 395.134C457.201 388.075 458.567 380.15 462.717 371.361C466.827 362.375 473.213 353.544 481.873 344.868C490.534 336.192 500.921 328.495 513.035 321.777C525.306 314.823 538.696 309.889 553.206 306.973C570.265 303.546 584.091 302.808 594.683 304.759C605.471 306.672 613.574 310.449 618.991 316.093C624.566 321.5 628.062 327.734 629.481 334.793C630.584 340.283 629.903 346.54 627.438 353.563C625.17 360.547 621.352 367.434 615.984 374.224C610.577 380.819 603.816 386.767 595.702 392.069C587.744 397.136 578.569 400.714 568.177 402.802Z" fill="black"/>
<path fill-rule="evenodd" clip-rule="evenodd" d="M720.843 42.9006C713.742 44.4403 704.38 48.6173 700.757 51.8619C698.271 54.0889 698.801 54.028 706.128 51.2478C715.88 47.5469 728.239 45.8092 734.654 47.2365C747.395 50.0707 754.794 59.6942 765.851 87.8085C770.719 100.188 773.683 105.857 777.103 109.328C782.09 114.389 787.346 116.398 782.635 111.442C778.815 107.424 775.135 99.8712 770.252 86.0279C761.772 61.9909 754.063 50.6603 742.454 45.1723C735.093 41.6926 729.247 41.0786 720.843 42.9006ZM678.241 60.4316C665.724 63.6302 659.328 70.3495 658.967 80.6754C658.639 90.0652 660.697 95.914 666.604 102.376C673.824 110.275 677.811 112.166 672.824 105.326C667.994 98.7028 664.068 87.7645 664.286 81.5422C664.592 72.7748 672.751 64.4717 683.368 62.1255C686.566 61.4188 687.605 59.2978 684.789 59.2268C683.871 59.2035 680.924 59.7454 678.241 60.4316ZM723.604 97.8328C721.487 101.274 718.921 106.558 717.901 109.576C716.292 114.337 715.689 114.939 713.348 114.118C711.865 113.598 708.56 112.744 706.004 112.22C701.871 111.372 701.314 110.81 700.969 107.141L700.582 103.013L698.827 107.622C697.409 111.347 696.323 112.313 693.166 112.661C690.108 112.996 691.072 113.384 697.598 114.442C715.301 117.31 730.619 126.078 746.445 142.403C757.253 153.552 763.093 158.357 758.991 152.725C756.975 149.957 757.051 149.85 762.293 148.103C769.555 145.683 769.122 144.824 761.559 146.648C758.181 147.464 755.262 147.93 755.072 147.684C754.883 147.439 752.056 143.846 748.791 139.7C745.526 135.554 743.296 131.77 743.834 131.29C744.373 130.811 744.174 130.697 743.389 131.039C742.606 131.38 739.457 129.725 736.392 127.362C733.327 124.998 728.176 121.525 724.944 119.643C719.471 116.455 719.142 115.974 720.117 112.59C720.693 110.594 722.012 107.135 723.049 104.905L724.933 100.849L725.025 104.385L725.115 107.92L726.541 104.058C727.324 101.934 727.849 98.257 727.707 95.8861L727.451 91.5765L723.604 97.8328ZM800.634 121.112C807.651 125.29 811.034 128.703 814.292 134.891C818.593 143.061 819.112 148.901 816.162 155.905C812.909 163.624 808.306 167.859 800.955 169.894C793.437 171.974 788.289 170.903 777.034 164.92C772.343 162.426 768.498 160.625 768.488 160.916C768.477 161.208 770.072 162.936 772.031 164.756C776.969 169.343 787.818 174.376 793.413 174.672C803.266 175.195 814.193 168.894 818.868 159.995C823.109 151.918 821.262 138.47 814.69 129.575C811.795 125.659 801.343 118.667 798.123 118.494C796.982 118.432 798.112 119.61 800.634 121.112ZM670.359 119.025C668.432 122.509 665.198 125.641 663.585 127.865L661.5 132.568L665.221 128.258C667.316 126.757 670.158 124.165 672.415 120.589C676.973 113.368 677.15 112.878 675.212 112.769C674.469 112.727 672.285 115.543 670.359 119.025ZM661 132C661.321 132.499 664.535 135.601 667.683 137.931C691.487 147.241 736.925 174.42 750 187.5C752.45 189.95 764.652 196.793 761.559 194C763.024 194.075 768.174 169.884 768.255 167.564C768.281 166.835 767.463 166.193 766.438 166.135C764.501 166.027 763.333 177.113 758.991 184.5C756.075 189.46 758.369 188.042 755.072 184.5C751.063 180.192 726.794 165.817 718.357 160.513C708.176 154.111 684.678 142.244 676.56 139.403C667.762 136.325 660.301 130.912 661 132Z" fill="black"/>
</svg>
