<svg width="40" height="38" viewBox="0 0 40 38" fill="none" xmlns="http://www.w3.org/2000/svg">
<path d="M27.6 28L21.3 21.7C20.8 22.1 20.225 22.4167 19.575 22.65C18.925 22.8833 18.2333 23 17.5 23C15.6833 23 14.1458 22.3708 12.8875 21.1125C11.6292 19.8542 11 18.3167 11 16.5C11 14.6833 11.6292 13.1458 12.8875 11.8875C14.1458 10.6292 15.6833 10 17.5 10C19.3167 10 20.8542 10.6292 22.1125 11.8875C23.3708 13.1458 24 14.6833 24 16.5C24 17.2333 23.8833 17.925 23.65 18.575C23.4167 19.225 23.1 19.8 22.7 20.3L29 26.6L27.6 28ZM17.5 21C18.75 21 19.8125 20.5625 20.6875 19.6875C21.5625 18.8125 22 17.75 22 16.5C22 15.25 21.5625 14.1875 20.6875 13.3125C19.8125 12.4375 18.75 12 17.5 12C16.25 12 15.1875 12.4375 14.3125 13.3125C13.4375 14.1875 13 15.25 13 16.5C13 17.75 13.4375 18.8125 14.3125 19.6875C15.1875 20.5625 16.25 21 17.5 21Z" fill="#512109"/>
</svg>
