<svg width="23" height="21" viewBox="0 0 23 21" fill="none" xmlns="http://www.w3.org/2000/svg">
<g clip-path="url(#clip0_110_862)">
<path d="M16.2916 18.375V16.625C16.2916 15.6967 15.8877 14.8065 15.1688 14.1501C14.4499 13.4937 13.4749 13.125 12.4583 13.125H4.79159C3.77492 13.125 2.7999 13.4937 2.08101 14.1501C1.36212 14.8065 0.958252 15.6967 0.958252 16.625V18.375M22.0416 18.375V16.625C22.0409 15.8495 21.7583 15.0962 21.2379 14.4833C20.7175 13.8704 19.989 13.4326 19.1666 13.2387M15.3333 2.73875C16.1578 2.93151 16.8887 3.36936 17.4106 3.98327C17.9325 4.59718 18.2158 5.35223 18.2158 6.12937C18.2158 6.90652 17.9325 7.66157 17.4106 8.27548C16.8887 8.88939 16.1578 9.32724 15.3333 9.52M12.4583 6.125C12.4583 8.058 10.742 9.625 8.62492 9.625C6.50783 9.625 4.79159 8.058 4.79159 6.125C4.79159 4.192 6.50783 2.625 8.62492 2.625C10.742 2.625 12.4583 4.192 12.4583 6.125Z" stroke="#512109" stroke-opacity="0.7" stroke-width="3.5" stroke-linecap="round" stroke-linejoin="round"/>
</g>
<defs>
<clipPath id="clip0_110_862">
<rect width="23" height="21" fill="white"/>
</clipPath>
</defs>
</svg>
